<svg xmlns="http://www.w3.org/2000/svg" aria-hidden="true" style="position:absolute;width:0;height:0;overflow:hidden">
  <defs>
    <symbol id="icon-linkedin" viewBox="0 0 24 28">
      <path d="M3.703 22.094h3.609V11.25H3.703v10.844zM7.547 7.906c-.016-1.062-.781-1.875-2.016-1.875s-2.047.812-2.047 1.875c0 1.031.781 1.875 2 1.875H5.5c1.266 0 2.047-.844 2.047-1.875zm9.141 14.188h3.609v-6.219c0-3.328-1.781-4.875-4.156-4.875-1.937 0-2.797 1.078-3.266 1.828h.031V11.25H9.297s.047 1.016 0 10.844h3.609v-6.062c0-.313.016-.641.109-.875.266-.641.859-1.313 1.859-1.313 1.297 0 1.813.984 1.813 2.453v5.797zM24 6.5v15c0 2.484-2.016 4.5-4.5 4.5h-15A4.502 4.502 0 0 1 0 21.5v-15C0 4.016 2.016 2 4.5 2h15C21.984 2 24 4.016 24 6.5z"/>
    </symbol>
    <symbol id="icon-instagram" viewBox="0 0 24 28">
      <path d="M16 14c0-2.203-1.797-4-4-4s-4 1.797-4 4 1.797 4 4 4 4-1.797 4-4zm2.156 0c0 3.406-2.75 6.156-6.156 6.156S5.844 17.406 5.844 14 8.594 7.844 12 7.844s6.156 2.75 6.156 6.156zm1.688-6.406c0 .797-.641 1.437-1.437 1.437S16.97 8.39 16.97 7.594s.641-1.437 1.437-1.437 1.437.641 1.437 1.437zM12 4.156c-1.75 0-5.5-.141-7.078.484-.547.219-.953.484-1.375.906s-.688.828-.906 1.375c-.625 1.578-.484 5.328-.484 7.078s-.141 5.5.484 7.078c.219.547.484.953.906 1.375s.828.688 1.375.906c1.578.625 5.328.484 7.078.484s5.5.141 7.078-.484c.547-.219.953-.484 1.375-.906s.688-.828.906-1.375c.625-1.578.484-5.328.484-7.078s.141-5.5-.484-7.078c-.219-.547-.484-.953-.906-1.375s-.828-.688-1.375-.906C17.5 4.015 13.75 4.156 12 4.156zM24 14c0 1.656.016 3.297-.078 4.953-.094 1.922-.531 3.625-1.937 5.031s-3.109 1.844-5.031 1.937c-1.656.094-3.297.078-4.953.078s-3.297.016-4.953-.078c-1.922-.094-3.625-.531-5.031-1.937S.173 20.875.08 18.953C-.014 17.297.002 15.656.002 14s-.016-3.297.078-4.953c.094-1.922.531-3.625 1.937-5.031s3.109-1.844 5.031-1.937c1.656-.094 3.297-.078 4.953-.078s3.297-.016 4.953.078c1.922.094 3.625.531 5.031 1.937s1.844 3.109 1.937 5.031C24.016 10.703 24 12.344 24 14z"/>
    </symbol>
    <symbol id="icon-logo" viewBox="0 0 84 32">
      <path d="M13.698.26c-.167 0-.342 0-.507.02-1.915.16-3.675.973-4.928 2.455C6.899 4.348 6.569 6.047 6.585 8.1l-3.648-.006c-.163 0-.332-.005-.504-.01-.476-.013-.97-.027-1.416.055-.269.049-.504.18-.693.377-.331.345-.339.78-.318 1.226.034.703.094 1.407.155 2.111.033.383.066.765.094 1.147l.606 7.824.295 3.778c.014.187.026.375.038.564.042.676.084 1.362.262 2.009a6.062 6.062 0 0 0 4.361 4.252c.818.197 1.768.175 2.66.154.266-.006.526-.012.777-.013h9.201c.234 0 .476.006.72.012.792.019 1.618.038 2.358-.134a6.163 6.163 0 0 0 2.856-1.568c.708-.702 1.273-1.639 1.52-2.607.189-.741.236-1.553.282-2.341.015-.254.029-.506.049-.752l.403-5.182.502-6.363c.024-.314.056-.632.087-.95.068-.69.137-1.385.136-2.067-.001-.419-.09-.811-.39-1.122-.207-.215-.545-.319-.831-.366-.429-.07-.899-.057-1.354-.045-.168.004-.334.009-.495.009-1.147-.002-2.295.002-3.443.012l-.049.001c.027-2.199-.463-4.085-2.043-5.693a7.043 7.043 0 0 0-5.04-2.153h-.024zm6.953 12.542.062.004.005.012a.685.685 0 0 1 .009.022l.003.006c.011.026.013.03.013.072-.02 2.696-.741 6.167-2.655 8.142-1.772 1.828-4.524 2.726-7.033 2.775 1.169-2.198 3.047-4.283 4.984-5.831.3-.239.613-.456.927-.672.202-.139.404-.279.603-.424.193-.141.452-.333.48-.591.025-.238-.101-.422-.25-.592-.208-.121-.361-.171-.599-.101-.338.099-.678.349-.985.575-.081.06-.16.118-.236.171a20.636 20.636 0 0 0-6.044 6.696c-.05-2.156.441-3.963 1.763-5.697 1.985-2.603 5.783-4.133 8.954-4.565zM1.368 9.445h24.646c-.087.83-.144 1.668-.201 2.504-.032.466-.063.932-.1 1.396l-.664 8.316-.248 3.064a50.2 50.2 0 0 0-.031.401c-.04.529-.08 1.062-.182 1.58-.105.531-.308.993-.584 1.456a5.376 5.376 0 0 1-.345.465c-.714.854-1.887 1.49-3.001 1.574-.607.046-1.231.034-1.849.023-.268-.005-.534-.01-.798-.01H8.829c-.196 0-.396.004-.597.008-.617.013-1.249.026-1.842-.076a4.39 4.39 0 0 1-2.104-.992 4.598 4.598 0 0 1-1.477-2.324c-.166-.601-.208-1.242-.249-1.871-.01-.158-.02-.315-.033-.471l-.242-3.118-.918-11.924zm19.831 1.912-.018.002c-3.741.433-8 1.972-10.418 5.002-1.554 1.948-2.403 4.481-2.123 6.976.062.548.186 1.071.364 1.592l-.073.184c-.307.772-1.021 2.565-.772 3.096a.613.613 0 0 0 .377.307c.065.021.131.032.199.04.21-.035.403-.078.529-.265.136-.202.274-.686.393-1.101.056-.197.109-.379.153-.506.154-.437.328-.866.503-1.295l.002-.005.061-.151c3.085.009 6.38-.957 8.612-3.159 2.496-2.463 3.125-6.435 3.129-9.796 0-.265-.018-.579-.212-.782-.119-.125-.299-.162-.465-.159-.08.002-.161.01-.241.019zm-7.801-9.749c.12-.007.239-.014.359-.013 1.465.01 2.933.666 3.962 1.698 1.402 1.406 1.689 2.898 1.692 4.807l-11.41.005c-.046-1.641.218-3.139 1.294-4.434 1.034-1.244 2.51-1.92 4.103-2.062z"/>
      <path d="m20.713 12.805-.062-.004c-3.171.432-6.97 1.962-8.954 4.565-1.323 1.735-1.814 3.541-1.763 5.697a20.625 20.625 0 0 1 6.044-6.696c.076-.053.155-.111.236-.171.307-.226.648-.475.985-.575.238-.07.39-.019.599.101.149.17.275.354.25.592-.027.258-.287.45-.48.591-.199.146-.401.285-.603.424-.314.216-.628.433-.927.672-1.937 1.548-3.816 3.633-4.984 5.831 2.509-.05 5.261-.947 7.033-2.775 1.913-1.974 2.635-5.446 2.655-8.142.001-.041-.001-.046-.013-.072l-.01-.023-.007-.017zm.467-1.447.018-.002c.08-.008.16-.017.241-.019.167-.004.346.034.465.159.194.203.212.517.212.782-.005 3.361-.634 7.333-3.13 9.796-2.232 2.202-5.527 3.168-8.612 3.159l-.061.151-.002.005c-.174.429-.349.858-.502 1.295a9.772 9.772 0 0 0-.153.506c-.119.414-.257.899-.393 1.101-.126.187-.32.231-.529.265a1.114 1.114 0 0 1-.199-.04.607.607 0 0 1-.377-.307c-.248-.53.465-2.324.772-3.096l.073-.184a7.38 7.38 0 0 1-.364-1.592c-.28-2.495.569-5.028 2.123-6.976 2.418-3.031 6.677-4.569 10.418-5.002z"/>
      <path d="m21.199 11.357-.018.002c-3.741.433-8 1.972-10.418 5.002-1.554 1.948-2.403 4.481-2.123 6.976.062.548.186 1.071.364 1.592l-.073.184c-.307.772-1.021 2.565-.772 3.096a.613.613 0 0 0 .377.307c.065.02.131.032.199.04.21-.035.403-.078.529-.265.136-.202.274-.686.393-1.1.057-.197.109-.379.154-.507.154-.437.328-.866.503-1.295l.002-.005.061-.151c3.085.009 6.38-.957 8.612-3.159 2.496-2.463 3.125-6.435 3.129-9.796 0-.265-.018-.579-.212-.782-.119-.125-.299-.162-.465-.159-.08.002-.161.01-.241.019zm-.547 1.444.062.004.007.017.01.023c.011.026.013.03.013.072-.02 2.696-.741 6.167-2.655 8.142-1.772 1.829-4.523 2.726-7.033 2.775 1.169-2.198 3.047-4.283 4.984-5.831.3-.239.613-.456.927-.672.202-.139.404-.279.603-.424.193-.142.452-.333.48-.591.025-.238-.101-.422-.25-.592-.208-.121-.361-.171-.599-.101-.338.099-.678.349-.985.575-.081.06-.16.118-.236.171a20.636 20.636 0 0 0-6.044 6.696c-.05-2.156.441-3.963 1.763-5.697 1.985-2.603 5.783-4.133 8.954-4.565zm48.718 7.692a4.801 4.801 0 1 0-9.597.34 4.801 4.801 0 0 0 9.597-.341zm-4.8-3.189c.773.031 1.4.217 1.989.739.702.621 1.094 1.519 1.145 2.449s-.241 1.874-.875 2.568c-.579.634-1.301.917-2.147.96-.772-.008-1.409-.128-2.018-.635-.712-.592-1.114-1.468-1.19-2.382-.078-.951.171-1.934.802-2.663.626-.723 1.366-.972 2.295-1.035zm-8.544 2.791a4.8 4.8 0 1 0-9.531 1.143 4.8 4.8 0 0 0 9.531-1.143zm-5.191-2.752c.769-.063 1.465.018 2.114.465.729.501 1.187 1.275 1.339 2.14.172.982.01 2.032-.581 2.851-.517.717-1.164 1.072-2.025 1.209-.786.04-1.481-.008-2.144-.476a3.245 3.245 0 0 1-1.335-2.136c-.161-.952.032-2.047.6-2.838.499-.695 1.196-1.081 2.031-1.215zm28.601-1.485a4.54 4.54 0 0 0-3.128 1.692c-.867 1.095-1.165 2.484-.994 3.857a4.545 4.545 0 0 0 1.714 3.055c1.133.88 2.569 1.104 3.969.912.81-.111 2.027-.499 2.544-1.173a.876.876 0 0 0 .186-.659.638.638 0 0 0-.236-.431c-.158-.118-.37-.133-.559-.096-.261.051-.496.213-.719.367l-.14.095c-.977.508-2.061.747-3.137.398a2.995 2.995 0 0 1-1.752-1.524c-.185-.37-.278-.762-.36-1.165h4.613c.192 0 .398.007.61.014.547.018 1.132.036 1.616-.05a.72.72 0 0 0 .368-.196c.227-.221.267-.534.261-.836-.026-1.156-.569-2.296-1.41-3.078-.97-.903-2.142-1.242-3.447-1.184zm.142 1.444c.7-.082 1.406.097 1.983.502.689.49 1.052 1.186 1.197 2.005-.585.007-1.171.005-1.756.004-.292-.001-.585-.002-.877-.001l-3.244.004c.149-.499.321-.952.64-1.371.514-.673 1.226-1.035 2.057-1.144z"/>
      <path d="M53.744 12.428c1.731-.041 3.472-.003 5.205-.006.987-.002 2.247-.082 3.205.017.154.016.277.06.394.162a.83.83 0 0 1 .284.588c.005.201-.118.432-.263.567a.708.708 0 0 1-.389.167c-.399.064-.839.027-1.244.026l-2.15-.004-.001 7.978c.003.672.088 2.139-.013 2.71a.987.987 0 0 1-.221.496.699.699 0 0 1-.513.227c-.207.005-.408-.041-.557-.191-.175-.176-.24-.434-.261-.674-.04-.443-.003-.911.002-1.356.008-.658.002-1.317.001-1.975l.005-7.215c-.715.003-3.19.117-3.696-.113a.653.653 0 0 1-.368-.406.749.749 0 0 1 .064-.611c.121-.22.283-.315.516-.386zm-11.326 3.436a5.964 5.964 0 0 1 1.896.172c.659.176 1.668.566 2.009 1.191.094.172.143.378.077.569-.068.194-.252.343-.438.419-.542.222-1.221-.525-1.731-.717-.83-.313-1.827-.296-2.635.081-.742.346-1.275 1.002-1.551 1.764-.32.884-.347 2.037.059 2.898.377.798 1.071 1.356 1.894 1.647.942.333 1.923.156 2.804-.266.273-.148.52-.345.831-.409a.573.573 0 0 1 .456.079.835.835 0 0 1 .327.552.695.695 0 0 1-.172.514c-.515.638-1.661.959-2.442 1.055-1.354.166-2.764-.105-3.848-.969a4.728 4.728 0 0 1-1.794-3.261 4.907 4.907 0 0 1 1.046-3.572 4.714 4.714 0 0 1 3.21-1.747zm28.921-2.422.08-.003c.24-.008.481.057.651.234.405.423.244 1.848.239 2.431.551.003 1.892-.168 2.305.199a.67.67 0 0 1 .211.515c.001.191-.049.374-.191.508-.386.366-1.78.222-2.327.218.005 1.172-.153 4.783.208 5.672.584 1.438 1.849.173 2.571.513a.696.696 0 0 1 .338.387c.081.228.009.431-.085.64l-.048.053c-.436.454-1.255.563-1.857.572-.698.01-1.358-.108-1.874-.625-.373-.373-.604-.886-.718-1.395-.175-.787-.103-1.659-.102-2.462l.002-3.354c-.423 0-.847-.003-1.27-.01a1.344 1.344 0 0 1-.199-.144.826.826 0 0 1-.249-.597.643.643 0 0 1 .19-.497c.342-.317 1.094-.203 1.529-.196-.001-.61-.135-1.704.095-2.241.102-.238.27-.325.499-.42z"/>
      <path d="M37.754 13.213c-.729-.072-4.299-.046-5.538-.028-.228.003-.439.019-.624.033a5.82 5.82 0 0 1-.412.022s-.493.116-.653.338c-.105.145-.14.33-.165.504-.132.922-.21 1.863-.287 2.801-.041.494-.081.986-.13 1.475l-.47 4.741c-.012.127-.034.3-.059.496-.08.635-.19 1.515-.118 1.865a.658.658 0 0 0 .314.455c.169.1.361.157.554.189h.002c.398-.001.999.005 1.67.012 1.391.014 4.93.032 5.752-.003.164-.007.338-.021.493-.08a.781.781 0 0 0 .461-.438.832.832 0 0 0-.029-.649.653.653 0 0 0-.435-.383h-7.111c.119-1.047.225-2.095.318-3.145l.084-.853.008-.085.216.003c.724.011 4.25.036 4.699-.031.165-.025.319-.066.439-.188a.766.766 0 0 0 .208-.593.765.765 0 0 0-.234-.512.639.639 0 0 0-.335-.154c-.42-.061-3.554-.044-4.345-.034-.212.003-.389.005-.502.005l.36-4.253h3.838c.196 0 .4.007.606.013.501.016 1.02.033 1.486-.04a.723.723 0 0 0 .428-.203.78.78 0 0 0 .216-.579.761.761 0 0 0-.703-.702z"/>
    </symbol>
    <symbol id="icon-youtube" viewBox="0 0 32 32">
      <path d="M28.791 9.604a3.345 3.345 0 0 0-2.35-2.354C24.353 6.677 16 6.667 16 6.667s-8.352-.009-10.441.539a3.416 3.416 0 0 0-2.354 2.371c-.551 2.088-.556 6.419-.556 6.419s-.005 4.352.541 6.419a3.341 3.341 0 0 0 2.351 2.353c2.109.573 10.44.583 10.44.583s8.353.009 10.441-.537a3.356 3.356 0 0 0 2.356-2.35c.552-2.087.556-6.416.556-6.416s.027-4.353-.543-6.441zM13.328 20.007l.007-8 6.943 4.007-6.949 3.993z"/>
    </symbol>
    <symbol id="icon-stars" viewBox="0 0 34 32">
      <path d="M15.707 1.468c.55-1.306 2.423-1.306 2.973 0l3.246 7.71a1.61 1.61 0 0 0 1.358.975l8.426.667c1.428.113 2.006 1.873.919 2.793l-6.419 5.432a1.58 1.58 0 0 0-.519 1.577l1.961 8.123c.332 1.376-1.183 2.464-2.405 1.727l-7.213-4.353a1.627 1.627 0 0 0-1.679 0l-7.214 4.353c-1.222.737-2.738-.35-2.405-1.727l1.961-8.123c.14-.58-.06-1.189-.519-1.577l-6.42-5.432c-1.088-.92-.509-2.68.919-2.793l8.426-.667a1.61 1.61 0 0 0 1.358-.975l3.246-7.71z"/>
    </symbol>
    <symbol id="icon-burger" viewBox="0 0 32 32">
      <path d="M4.799 8.001a1.6 1.6 0 0 1 1.6-1.6h19.2a1.6 1.6 0 0 1 0 3.2h-19.2a1.6 1.6 0 0 1-1.6-1.6zm0 8a1.6 1.6 0 0 1 1.6-1.6h19.2a1.6 1.6 0 0 1 0 3.2h-19.2a1.6 1.6 0 0 1-1.6-1.6zm0 8a1.6 1.6 0 0 1 1.6-1.6h19.2a1.6 1.6 0 0 1 0 3.2h-19.2a1.6 1.6 0 0 1-1.6-1.6z"/>
    </symbol>
    <symbol id="icon-close" viewBox="0 0 32 32">
      <path d="M27.179.918 15.864 12.23 4.552.918.781 4.689l11.312 11.312L.781 27.313l3.771 3.771 11.312-11.312 11.315 11.312 3.771-3.771-11.312-11.312L30.95 4.689 27.179.918z"/>
    </symbol>
  </defs>
</svg>