<svg width="104" height="39" viewBox="0 0 104 39" fill="none" xmlns="http://www.w3.org/2000/svg">
  <path d="M17.0842 0.355434C16.8811 0.355601 16.667 0.355776 16.4663 0.379725C14.1331 0.574353 11.9891 1.56548 10.4622 3.37108C8.80055 5.33604 8.39872 7.40631 8.41818 9.90786L3.97308 9.90107C3.77397 9.90089 3.56815 9.8952 3.35942 9.88942C2.77947 9.87336 2.17707 9.85668 1.6338 9.95622C1.30617 10.0163 1.02028 10.1756 0.789869 10.4155C0.386465 10.8354 0.376663 11.3659 0.402876 11.9093C0.444221 12.7661 0.517811 13.6241 0.591316 14.4811C0.631303 14.9473 0.6713 15.4136 0.706052 15.8792L1.44384 25.4122L1.80281 30.0159C1.82049 30.2432 1.83462 30.4727 1.8488 30.7032C1.8995 31.527 1.95094 32.363 2.16845 33.1512C2.5442 34.4914 3.28892 35.699 4.31772 36.637C5.21685 37.4534 6.30363 38.0359 7.4817 38.3322C8.47814 38.5727 9.63578 38.5455 10.7232 38.5199C11.0468 38.5123 11.3643 38.5049 11.6694 38.5047L17.6535 38.5028L22.8798 38.5051C23.1653 38.5051 23.4593 38.5121 23.7568 38.5192C24.7221 38.5421 25.7283 38.566 26.6304 38.3558C27.8995 38.0604 29.1837 37.3637 30.1102 36.4451C30.9724 35.5899 31.6612 34.448 31.9621 33.2682C32.1925 32.3656 32.2503 31.3756 32.3063 30.4153C32.3244 30.1057 32.3423 29.799 32.3657 29.4995L32.8562 23.1857L33.4678 15.4333C33.4975 15.0504 33.5358 14.6634 33.5741 14.2756C33.6573 13.435 33.7411 12.5881 33.7392 11.7574C33.7383 11.2464 33.6301 10.7697 33.264 10.3903C33.012 10.1288 32.6001 10.0011 32.2515 9.94424C31.7291 9.85906 31.1561 9.87425 30.6019 9.88895C30.397 9.89439 30.1946 9.89975 29.9983 9.89995C28.6003 9.89723 27.2018 9.90218 25.8038 9.9147L25.7437 9.91558C25.7766 7.23665 25.1802 4.93786 23.2543 2.97859C21.645 1.31117 19.4306 0.365116 17.1135 0.355408L17.0842 0.355434ZM25.5565 15.636L25.6319 15.6404C25.6338 15.6455 25.6357 15.6503 25.6375 15.6547C25.6385 15.657 25.6394 15.6592 25.6403 15.6614C25.6435 15.6694 25.6465 15.6763 25.6491 15.6823L25.6523 15.6895C25.6661 15.7208 25.6686 15.7265 25.6679 15.7769C25.6439 19.0619 24.7646 23.2911 22.4332 25.6969C20.2743 27.9247 16.9217 29.0179 13.8643 29.0785C15.2884 26.4001 17.5768 23.86 19.9373 21.9734C20.3023 21.6819 20.6844 21.4184 21.0668 21.1547C21.313 20.985 21.5593 20.8151 21.8012 20.6377C22.0361 20.4653 22.3523 20.2315 22.3856 19.9172C22.4161 19.6278 22.2622 19.4032 22.0809 19.1964C21.8271 19.0493 21.6413 18.9879 21.3514 19.0729C20.9399 19.1937 20.5252 19.4982 20.151 19.773C20.0519 19.8458 19.9555 19.9165 19.8628 19.9812C16.8362 22.1244 14.3212 24.9106 12.4981 28.14C12.4366 25.5126 13.0349 23.3116 14.6463 21.1981C17.0645 18.0264 21.6931 16.1624 25.5565 15.636ZM2.06109 11.5465L32.0897 11.5461C31.9832 12.5574 31.9141 13.578 31.8452 14.597C31.8068 15.1647 31.7684 15.7324 31.7236 16.2975L30.915 26.4297L30.6127 30.1634C30.5992 30.3255 30.5869 30.4884 30.5746 30.6517C30.5261 31.2959 30.4772 31.9459 30.3529 32.5766C30.2253 33.2238 29.9775 33.7864 29.6418 34.3509C29.5124 34.5474 29.3719 34.7365 29.2212 34.9172C28.3506 35.9574 26.9217 36.7322 25.5644 36.8348C24.8253 36.8906 24.0648 36.8767 23.3115 36.8628C22.9855 36.8568 22.6606 36.8508 22.3394 36.8506L16.1094 36.8487L11.1519 36.851C10.9128 36.8511 10.6694 36.8562 10.4242 36.8612C9.67236 36.8768 8.90253 36.8927 8.17991 36.7683C7.2321 36.6028 6.34634 36.1853 5.61595 35.5593C4.74105 34.8215 4.11315 33.8336 3.81691 32.7282C3.61425 31.9956 3.56372 31.2149 3.5141 30.4484C3.50164 30.2559 3.48923 30.0642 3.47448 29.8744L3.17963 26.0755L2.06109 11.5465ZM26.2233 13.8755L26.201 13.8779C21.6427 14.4052 16.4534 16.2801 13.507 19.9725C11.6132 22.3456 10.5786 25.4323 10.9203 28.4719C10.9954 29.1394 11.1465 29.7774 11.3644 30.4121C11.3398 30.4751 11.3097 30.5507 11.2755 30.6367C10.9014 31.5769 10.0319 33.7623 10.3343 34.4087C10.4218 34.5954 10.5999 34.7207 10.7931 34.7822C10.8727 34.8072 10.9529 34.8215 11.0357 34.8312C11.2911 34.7892 11.5272 34.7365 11.6809 34.5081C11.8459 34.2623 12.015 33.6721 12.1595 33.1673C12.2284 32.9268 12.2917 32.7057 12.3465 32.5502C12.5338 32.0182 12.7464 31.495 12.9588 30.9725L12.9613 30.9664C12.9861 30.9052 13.011 30.844 13.0358 30.7829C16.7946 30.794 20.8092 29.6174 23.5284 26.9344C26.5694 23.9333 27.3355 19.094 27.3415 14.9987C27.3419 14.6758 27.3197 14.2927 27.0835 14.0457C26.9383 13.8938 26.7197 13.848 26.5167 13.8525C26.4188 13.8547 26.3209 13.8651 26.2233 13.8755ZM16.7188 1.99782C16.8644 1.98881 17.0105 1.98067 17.1561 1.98169C18.9415 1.99421 20.7292 2.79274 21.9839 4.05103C23.6921 5.76436 24.0416 7.58249 24.0453 9.908L17.5037 9.90444L10.1428 9.91359C10.0865 7.91466 10.4084 6.0889 11.7198 4.51051C12.9796 2.99421 14.7776 2.17123 16.7188 1.99782Z" fill="#030A06"/>
  <path d="M25.6319 15.6404L25.5565 15.636C21.6931 16.1624 17.0645 18.0264 14.6463 21.1981C13.0349 23.3116 12.4366 25.5126 12.4981 28.14C14.3212 24.9106 16.8361 22.1244 19.8628 19.9812C19.9555 19.9165 20.0519 19.8458 20.151 19.773C20.5252 19.4982 20.9399 19.1937 21.3514 19.073C21.6413 18.9879 21.8271 19.0493 22.0809 19.1964C22.2622 19.4032 22.4161 19.6278 22.3856 19.9173C22.3523 20.2315 22.0361 20.4654 21.8012 20.6377C21.5593 20.8151 21.313 20.985 21.0668 21.1547C20.6844 21.4184 20.3023 21.6819 19.9373 21.9734C17.5768 23.86 15.2884 26.4001 13.8643 29.0785C16.9217 29.0179 20.2743 27.9247 22.4332 25.6969C24.7646 23.2911 25.6439 19.0619 25.6679 15.7769C25.6686 15.7265 25.6661 15.7208 25.6523 15.6895C25.649 15.682 25.6449 15.6728 25.6402 15.6614C25.6377 15.6552 25.6349 15.6482 25.6319 15.6404ZM26.201 13.8779L26.2233 13.8755C26.3209 13.8651 26.4188 13.8547 26.5167 13.8525C26.7197 13.848 26.9383 13.8938 27.0835 14.0457C27.3197 14.2927 27.3419 14.6758 27.3415 14.9988C27.3354 19.094 26.5694 23.9333 23.5284 26.9344C20.8092 29.6174 16.7946 30.794 13.0358 30.7829C13.011 30.844 12.9861 30.9052 12.9613 30.9664L12.9588 30.9725C12.7464 31.495 12.5338 32.0182 12.3465 32.5502C12.2917 32.7057 12.2284 32.9268 12.1595 33.1673C12.015 33.6721 11.8459 34.2623 11.6809 34.5081C11.5272 34.7365 11.2911 34.7892 11.0357 34.8312C10.9529 34.8215 10.8727 34.8072 10.7931 34.7822C10.5999 34.7207 10.4217 34.5955 10.3343 34.4087C10.0319 33.7623 10.9014 31.5769 11.2755 30.6367C11.3097 30.5507 11.3398 30.4751 11.3644 30.4121C11.1465 29.7774 10.9954 29.1394 10.9203 28.4719C10.5786 25.4324 11.6132 22.3456 13.507 19.9725C16.4534 16.2801 21.6427 14.4052 26.201 13.8779Z" fill="#030A06"/>
  <path d="M26.2232 13.8755L26.2009 13.8779C21.6426 14.4052 16.4533 16.2801 13.5069 19.9725C11.6132 22.3456 10.5785 25.4324 10.9203 28.4719C10.9953 29.1394 11.1465 29.7774 11.3643 30.4121C11.3397 30.4751 11.3096 30.5507 11.2754 30.6367C10.9013 31.5769 10.0318 33.7623 10.3342 34.4087C10.4217 34.5955 10.5998 34.7207 10.793 34.7822C10.8726 34.8072 10.9528 34.8215 11.0357 34.8312C11.291 34.7892 11.5271 34.7365 11.6808 34.5081C11.8459 34.2623 12.0148 33.6724 12.1594 33.1676C12.2283 32.927 12.2916 32.7057 12.3464 32.5502C12.5337 32.0182 12.7463 31.495 12.9587 30.9725C12.9595 30.9704 12.9604 30.9684 12.9612 30.9664C12.986 30.9052 13.0109 30.844 13.0357 30.7829C16.7945 30.794 20.8091 29.6174 23.5283 26.9344C26.5693 23.9333 27.3354 19.094 27.3414 14.9988C27.3418 14.6758 27.3196 14.2927 27.0834 14.0457C26.9383 13.8938 26.7196 13.848 26.5166 13.8525C26.4187 13.8547 26.3208 13.8651 26.2232 13.8755ZM25.5564 15.636L25.6318 15.6404C25.6348 15.6482 25.6376 15.6552 25.6402 15.6614C25.6449 15.6729 25.6489 15.6819 25.6522 15.6895C25.666 15.7208 25.6685 15.7265 25.6678 15.7769C25.6438 19.0619 24.7645 23.2911 22.4331 25.6969C20.2742 27.9247 16.9216 29.0179 13.8642 29.0785C15.2883 26.4001 17.5767 23.86 19.9372 21.9734C20.3022 21.6819 20.6844 21.4184 21.0668 21.1547C21.313 20.985 21.5593 20.8151 21.8012 20.6377C22.036 20.4654 22.3522 20.2315 22.3855 19.9173C22.416 19.6278 22.2621 19.4032 22.0809 19.1964C21.8271 19.0493 21.6412 18.9879 21.3513 19.073C20.9398 19.1937 20.5252 19.4982 20.1509 19.773C20.0518 19.8458 19.9554 19.9165 19.8627 19.9812C16.8361 22.1244 14.3211 24.9106 12.498 28.14C12.4366 25.5126 13.0349 23.3116 14.6463 21.1981C17.0644 18.0264 21.693 16.1624 25.5564 15.636Z" fill="#030A06"/>
  <path d="M84.9158 25.0073C84.8018 21.7786 82.0925 19.2539 78.8642 19.3673C75.635 19.4803 73.1092 22.1907 73.2232 25.4194C73.3372 28.6487 76.0476 31.1739 79.2763 31.06C82.5051 30.9455 85.0298 28.2356 84.9158 25.0073ZM79.0675 21.1225C80.0093 21.1607 80.7726 21.3871 81.4906 22.023C82.3462 22.7802 82.8233 23.8742 82.8857 25.0073C82.9487 26.1415 82.5918 27.2912 81.8196 28.136C81.1141 28.9081 80.2341 29.2537 79.2031 29.3053C78.2623 29.2955 77.4861 29.149 76.7439 28.5316C75.8769 27.8106 75.3869 26.7429 75.2946 25.6288C75.1991 24.4704 75.5024 23.2728 76.2714 22.3841C77.0343 21.5031 77.9353 21.1999 79.0675 21.1225Z" fill="#030A06"/>
  <path d="M68.6574 24.5229C68.2726 21.3122 65.3552 19.0238 62.1455 19.4147C58.9443 19.8046 56.6632 22.7126 57.047 25.9145C57.4308 29.1164 60.3346 31.4029 63.5372 31.0253C66.7483 30.6462 69.0423 27.7331 68.6574 24.5229ZM62.3328 21.1699C63.2693 21.0935 64.1179 21.1921 64.9088 21.7362C65.7969 22.3469 66.3554 23.2902 66.5401 24.344C66.7497 25.5406 66.5526 26.8202 65.8327 27.8172C65.2025 28.6904 64.415 29.1237 63.3659 29.2908C62.4076 29.3398 61.561 29.2815 60.7539 28.7105C59.8834 28.0973 59.2969 27.1591 59.1269 26.1079C58.9314 24.9485 59.1657 23.6142 59.8578 22.6496C60.4661 21.8022 61.3154 21.3324 62.3328 21.1699Z" fill="#030A06"/>
  <path d="M97.1799 19.36C97.151 19.3611 97.1227 19.3631 97.0938 19.3667C95.6213 19.5406 94.2952 20.2534 93.3694 21.4221C92.3131 22.7564 91.9505 24.4482 92.1589 26.1213C92.3296 27.5908 93.0816 28.9308 94.2467 29.8432C95.6269 30.9155 97.3769 31.1878 99.0821 30.9547C100.069 30.8195 101.552 30.3471 102.182 29.526C102.36 29.2954 102.449 29.0138 102.408 28.7229C102.379 28.5187 102.29 28.3232 102.122 28.1978C101.928 28.0539 101.67 28.0359 101.441 28.0808C101.122 28.143 100.836 28.3403 100.564 28.5274C100.507 28.5668 100.451 28.6058 100.395 28.643C99.2038 29.2619 97.8829 29.5528 96.5729 29.1283C95.6408 28.8214 94.8708 28.1525 94.4376 27.2715C94.2116 26.8212 94.0992 26.3431 93.9991 25.8526H99.6195C99.8534 25.8529 100.104 25.861 100.362 25.8692C101.029 25.8906 101.742 25.9135 102.33 25.8083C102.498 25.7784 102.658 25.6886 102.78 25.57C103.056 25.3007 103.105 24.9196 103.097 24.5518C103.065 23.1438 102.404 21.7548 101.38 20.8021C100.197 19.702 98.7706 19.2883 97.1799 19.36ZM97.3532 21.1194C98.2063 21.0193 99.0666 21.237 99.7696 21.7316C100.61 22.3288 101.051 23.1768 101.228 24.1748C100.516 24.1834 99.8023 24.1815 99.0892 24.1795C98.7328 24.1785 98.3762 24.1776 98.0201 24.1779L94.0672 24.1831C94.2483 23.575 94.4582 23.0226 94.8471 22.513C95.4737 21.6924 96.3413 21.2524 97.3532 21.1194Z" fill="#030A06"/>
  <path d="M65.8773 15.1803C67.9869 15.1303 70.1078 15.1767 72.2188 15.1731C73.4211 15.171 74.9571 15.0736 76.1243 15.1937C76.312 15.2133 76.4616 15.2665 76.6045 15.3913C76.8077 15.5687 76.9428 15.8364 76.95 16.1077C76.9562 16.3527 76.8061 16.6338 76.6292 16.7983C76.4941 16.9231 76.3332 16.9732 76.1552 17.0021C75.6694 17.0804 75.133 17.0345 74.6399 17.034L72.0208 17.0294L72.0197 26.7497C72.0234 27.5687 72.127 29.3554 72.0037 30.0522C71.9651 30.2709 71.8856 30.4891 71.735 30.6567C71.5731 30.8367 71.3497 30.9275 71.1094 30.9326C70.8577 30.9383 70.6122 30.8831 70.4306 30.7C70.2171 30.486 70.1387 30.1708 70.1124 29.8784C70.0639 29.3389 70.1083 28.7679 70.1145 28.2258C70.1237 27.4238 70.1165 26.6213 70.116 25.8192L70.1222 17.0278C69.2511 17.032 66.2359 17.1707 65.6185 16.8906C65.393 16.7885 65.2514 16.6307 65.1696 16.396C65.0823 16.1464 65.1221 15.8802 65.2482 15.6512C65.3958 15.383 65.5929 15.268 65.8773 15.1803Z" fill="#030A06"/>
  <path d="M52.0782 19.3678C52.8618 19.3235 53.6274 19.3735 54.3883 19.5772C55.1917 19.7923 56.4204 20.2663 56.8358 21.0286C56.95 21.2386 57.0095 21.4897 56.929 21.7218C56.8466 21.9586 56.6217 22.1396 56.3951 22.2325C55.7344 22.5032 54.9071 21.5929 54.2855 21.3587C53.2747 20.9776 52.059 20.9987 51.0755 21.4578C50.172 21.8797 49.5224 22.6786 49.186 23.6065C48.7956 24.6834 48.7626 26.0879 49.2583 27.1375C49.7179 28.1102 50.5635 28.79 51.5665 29.1444C52.7143 29.5503 53.9102 29.3342 54.9828 28.8199C55.3152 28.6399 55.617 28.4001 55.9957 28.3217C56.1914 28.2815 56.3846 28.3026 56.5515 28.4182C56.7569 28.5605 56.9229 28.8421 56.9501 29.0907C56.9758 29.3239 56.8851 29.5384 56.7405 29.7174C56.1129 30.4952 54.7161 30.8861 53.7655 31.0027C52.1157 31.2049 50.3972 30.8743 49.0769 29.8216C47.8358 28.8514 47.0461 27.4155 46.8916 25.8481C46.7281 24.2863 47.1861 22.723 48.1665 21.4965C49.1603 20.2746 50.5163 19.535 52.0782 19.3678Z" fill="#030A06"/>
  <path d="M87.3152 16.4161C87.3482 16.4146 87.3807 16.413 87.4132 16.412C87.7056 16.4027 87.9996 16.4811 88.2064 16.6967C88.6995 17.212 88.5035 18.9481 88.4979 19.6588C89.1694 19.6629 90.8034 19.454 91.3068 19.9017C91.4888 20.0642 91.5631 20.2891 91.5636 20.5289C91.5647 20.7615 91.5043 20.9843 91.3315 21.1484C90.8611 21.594 89.1627 21.4186 88.4968 21.4145C88.503 22.8422 88.3101 27.2428 88.7501 28.3259C89.4613 30.0775 91.003 28.5368 91.8824 28.951C92.0706 29.0397 92.2249 29.2269 92.2945 29.4219C92.3935 29.6994 92.3053 29.9475 92.1913 30.2023C92.1717 30.2239 92.1521 30.2451 92.1325 30.2662C91.6013 30.8197 90.6033 30.9527 89.8703 30.963C89.0198 30.9754 88.2157 30.831 87.5875 30.2018C87.1336 29.7469 86.8515 29.1228 86.7133 28.5018C86.4997 27.5424 86.5879 26.4804 86.5885 25.502L86.591 21.416C86.0753 21.4155 85.559 21.4119 85.0432 21.4037C84.9581 21.3505 84.8751 21.2959 84.8003 21.2283C84.5965 21.0447 84.5037 20.7708 84.4965 20.5011C84.4903 20.2751 84.5594 20.0523 84.7281 19.8961C85.1448 19.5103 86.0613 19.6485 86.591 19.6578C86.5895 18.9145 86.4265 17.5818 86.7071 16.9278C86.8319 16.6374 87.0356 16.5322 87.3152 16.4161Z" fill="#030A06"/>
  <path fill-rule="evenodd" clip-rule="evenodd" d="M46.3945 16.1377C45.5058 16.0504 41.156 16.0813 39.6469 16.1035C39.3695 16.1076 39.1121 16.1265 38.8861 16.1432C38.6938 16.1573 38.5242 16.1698 38.3842 16.1701C38.3842 16.1701 37.7837 16.311 37.5889 16.5815C37.4616 16.7587 37.4181 16.9835 37.3877 17.195C37.2265 18.3187 37.1321 19.4652 37.0381 20.6079C36.9886 21.2092 36.9392 21.8096 36.8802 22.405L36.3079 28.1812C36.2927 28.3356 36.2663 28.5464 36.2363 28.7857C36.1394 29.5594 36.0051 30.6311 36.092 31.0576C36.14 31.294 36.2653 31.4893 36.4743 31.6125C36.6806 31.7341 36.9143 31.8033 37.1491 31.8431L37.1512 31.8431C37.6365 31.8421 38.3683 31.8497 39.186 31.8581C40.8814 31.8757 45.1923 31.8971 46.1947 31.8539C46.3946 31.8452 46.6064 31.8281 46.7948 31.757C47.0478 31.661 47.2558 31.4779 47.3559 31.2231C47.4566 30.9668 47.4343 30.6795 47.32 30.4319C47.2052 30.1823 47.0499 30.0492 46.7895 29.9657H38.1249C38.2694 28.69 38.3987 27.4127 38.5126 26.134L38.6149 25.0946L38.6249 24.9915C38.6925 24.9924 38.7817 24.9938 38.8876 24.9954C39.7701 25.0087 44.0655 25.0396 44.6128 24.958C44.8136 24.9281 45.0012 24.8775 45.1482 24.7295C45.3384 24.5376 45.4174 24.2725 45.4017 24.0064C45.3884 23.7805 45.2884 23.5345 45.1167 23.3823C45.0021 23.2812 44.8601 23.2157 44.7085 23.1946C44.197 23.1201 40.3782 23.1403 39.4141 23.1527C39.1555 23.156 38.9407 23.1588 38.8019 23.159L39.2411 17.977H43.917C44.1554 17.9771 44.4037 17.9851 44.6558 17.9932C45.2661 18.0127 45.8986 18.033 46.4661 17.945C46.6679 17.9141 46.841 17.8449 46.9874 17.698C47.1667 17.5179 47.2648 17.2456 47.2511 16.9929C47.237 16.735 47.0982 16.4895 46.8965 16.3311C46.7428 16.2105 46.5871 16.1563 46.3945 16.1377Z" fill="#030A06"/>
</svg>